<svg width="238" height="77" viewBox="0 0 238 77" fill="none" xmlns="http://www.w3.org/2000/svg">
<g clip-path="url(#clip0_7635_9177)">
<path d="M122.918 27.0576C122.918 28.7152 121.605 30.0506 119.974 30.0506C118.343 30.0506 117.029 28.7152 117.029 27.0576C117.029 25.3999 118.298 24.0646 119.974 24.0646C121.65 24.1106 122.918 25.4459 122.918 27.0576ZM110.778 33.0896C110.778 33.3659 110.778 33.8263 110.778 33.8263C110.778 33.8263 109.374 31.9845 106.384 31.9845C101.447 31.9845 97.5964 35.8063 97.5964 41.1016C97.5964 46.3508 101.401 50.2187 106.384 50.2187C109.419 50.2187 110.778 48.3308 110.778 48.3308V49.1136C110.778 49.482 111.05 49.7583 111.412 49.7583H115.082V32.4449C115.082 32.4449 111.729 32.4449 111.412 32.4449C111.05 32.4449 110.778 32.7673 110.778 33.0896ZM110.778 44.1867C110.099 45.1997 108.74 46.0746 107.109 46.0746C104.21 46.0746 101.99 44.2327 101.99 41.1016C101.99 37.9705 104.21 36.1286 107.109 36.1286C108.694 36.1286 110.144 37.0495 110.778 38.0165V44.1867ZM117.799 32.4449H122.148V49.7583H117.799V32.4449ZM182.757 31.9845C179.768 31.9845 178.363 33.8263 178.363 33.8263V24.1106H174.015V49.7583C174.015 49.7583 177.367 49.7583 177.684 49.7583C178.046 49.7583 178.318 49.4359 178.318 49.1136V48.3308C178.318 48.3308 179.722 50.2187 182.712 50.2187C187.65 50.2187 191.5 46.3508 191.5 41.1016C191.5 35.8524 187.649 31.9845 182.757 31.9845ZM182.033 46.0285C180.356 46.0285 179.043 45.1537 178.363 44.1406V37.9705C179.043 37.0495 180.492 36.0826 182.033 36.0826C184.932 36.0826 187.151 37.9244 187.151 41.0556C187.151 44.1867 184.932 46.0285 182.033 46.0285ZM171.75 39.49V49.8043H167.401V39.9965C167.401 37.1416 166.495 35.9905 164.049 35.9905C162.735 35.9905 161.376 36.6812 160.516 37.6942V49.7583H156.167V32.4449H159.61C159.972 32.4449 160.244 32.7673 160.244 33.0896V33.8263C161.512 32.491 163.188 31.9845 164.864 31.9845C166.767 31.9845 168.352 32.537 169.621 33.6421C171.161 34.9314 171.75 36.5891 171.75 39.49ZM145.613 31.9845C142.623 31.9845 141.219 33.8263 141.219 33.8263V24.1106H136.87V49.7583C136.87 49.7583 140.222 49.7583 140.539 49.7583C140.902 49.7583 141.173 49.4359 141.173 49.1136V48.3308C141.173 48.3308 142.578 50.2187 145.567 50.2187C150.505 50.2187 154.355 46.3508 154.355 41.1016C154.401 35.8524 150.55 31.9845 145.613 31.9845ZM144.888 46.0285C143.212 46.0285 141.898 45.1537 141.219 44.1406V37.9705C141.898 37.0495 143.348 36.0826 144.888 36.0826C147.787 36.0826 150.007 37.9244 150.007 41.0556C150.007 44.1867 147.787 46.0285 144.888 46.0285ZM133.11 31.9845C134.424 31.9845 135.103 32.2147 135.103 32.2147V36.3128C135.103 36.3128 131.48 35.0696 129.215 37.6942V49.8043H124.866V32.4449C124.866 32.4449 128.218 32.4449 128.535 32.4449C128.898 32.4449 129.169 32.7673 129.169 33.0896V33.8263C129.985 32.8594 131.751 31.9845 133.11 31.9845ZM87.9478 48.1927C87.7214 47.6401 87.4949 47.0415 87.2684 46.535C86.906 45.7062 86.5436 44.9234 86.2265 44.1867L86.1812 44.1406C83.0556 37.2337 79.7036 30.2347 76.1703 23.3278L76.0344 23.0516C75.672 22.3609 75.3096 21.6241 74.9472 20.8874C74.4942 20.0586 74.0413 19.1837 73.3165 18.3549C71.8669 16.513 69.7832 15.5 67.5636 15.5C65.2987 15.5 63.2603 16.513 61.7654 18.2628C61.0859 19.0916 60.5877 19.9665 60.1347 20.7953C59.7723 21.532 59.4099 22.2688 59.0475 22.9595L58.9116 23.2357C55.4236 30.1426 52.0263 37.1416 48.9007 44.0485L48.8554 44.1406C48.5383 44.8774 48.1759 45.6602 47.8135 46.489C47.587 46.9955 47.3605 47.548 47.134 48.1466C46.5452 49.8503 46.364 51.462 46.5905 53.1196C47.0887 56.5731 49.3537 59.474 52.4792 60.7633C53.657 61.2698 54.8801 61.5 56.1484 61.5C56.5108 61.5 56.9638 61.454 57.3262 61.4079C58.821 61.2237 60.3612 60.7172 61.856 59.8423C63.7132 58.7833 65.4799 57.2638 67.473 55.0536C69.4661 57.2638 71.2781 58.7833 73.09 59.8423C74.5848 60.7172 76.125 61.2237 77.6198 61.4079C77.9822 61.454 78.4352 61.5 78.7976 61.5C80.0659 61.5 81.3343 61.2698 82.4668 60.7633C85.6376 59.474 87.8573 56.527 88.3555 53.1196C88.7179 51.508 88.5367 49.8964 87.9478 48.1927ZM67.5183 50.5871C65.0722 47.456 63.4867 44.509 62.9432 42.0225C62.7167 40.9635 62.6714 40.0425 62.8073 39.2137C62.8979 38.477 63.1697 37.8323 63.532 37.2798C64.3927 36.0365 65.8423 35.2538 67.5183 35.2538C69.1943 35.2538 70.6892 35.9905 71.5046 37.2798C71.8669 37.8323 72.1387 38.477 72.2293 39.2137C72.3652 40.0425 72.3199 41.0095 72.0934 42.0225C71.5499 44.463 69.9644 47.4099 67.5183 50.5871ZM85.5923 52.7513C85.2752 55.1456 83.6898 57.2177 81.4702 58.1386C80.383 58.5991 79.2053 58.7372 78.0275 58.5991C76.8951 58.461 75.7626 58.0926 74.5848 57.4019C72.9541 56.481 71.3234 55.0536 69.4208 52.9354C72.4105 49.2057 74.2225 45.7983 74.9019 42.7593C75.219 41.3318 75.2643 40.0425 75.1284 38.8453C74.9472 37.6942 74.5395 36.6351 73.9054 35.7142C72.5011 33.6421 70.1456 32.4449 67.5183 32.4449C64.891 32.4449 62.5355 33.6882 61.1312 35.7142C60.4971 36.6351 60.0894 37.6942 59.9082 38.8453C59.727 40.0425 59.7723 41.3779 60.1347 42.7593C60.8141 45.7983 62.6714 49.2518 65.6158 52.9815C63.7585 55.0996 62.0825 56.527 60.4518 57.4479C59.274 58.1386 58.1415 58.507 57.0091 58.6451C55.786 58.7833 54.6083 58.5991 53.5664 58.1847C51.3468 57.2638 49.7613 55.1917 49.4443 52.7973C49.3084 51.6461 49.399 50.495 49.8519 49.2057C49.9878 48.7452 50.2143 48.2848 50.4408 47.7322C50.7579 46.9955 51.1203 46.2127 51.4827 45.4299L51.528 45.3378C54.6536 38.477 58.0056 31.478 61.4936 24.6632L61.6295 24.3869C61.9919 23.6962 62.3543 22.9595 62.7167 22.2688C63.0791 21.532 63.4867 20.8413 63.985 20.2427C64.9363 19.1376 66.2046 18.539 67.6089 18.539C69.0131 18.539 70.2815 19.1376 71.2328 20.2427C71.731 20.8413 72.1387 21.532 72.5011 22.2688C72.8635 22.9595 73.2259 23.6962 73.5883 24.3869L73.7242 24.6632C77.1668 31.524 80.5189 38.523 83.6445 45.3839V45.4299C84.0069 46.1667 84.324 46.9955 84.6864 47.7322C84.9129 48.2848 85.1394 48.7452 85.2752 49.2057C85.6376 50.4029 85.7735 51.5541 85.5923 52.7513Z" fill="white"/>
</g>
<defs>
<clipPath id="clip0_7635_9177">
<rect width="145" height="46" fill="white" transform="translate(46.5 15.5)"/>
</clipPath>
</defs>
</svg>
