<svg width="237" height="77" viewBox="0 0 237 77" fill="none" xmlns="http://www.w3.org/2000/svg">
<g clip-path="url(#clip0_7635_9189)">
<path d="M64.2385 32.0568V36.8636H75.9505C75.6395 39.5227 74.7067 41.5682 73.2557 42.8977C71.5974 44.5341 68.9026 46.375 64.2385 46.375C57.087 46.375 51.4901 40.6477 51.4901 33.5909C51.4901 26.5341 56.9834 20.8068 64.2385 20.8068C68.0734 20.8068 70.9755 22.3409 73.0484 24.2841L76.4687 20.9091C73.5666 18.1477 69.6281 16 64.2385 16C54.3922 16 46.1006 23.875 46.1006 33.5909C46.1006 43.3068 54.3922 51.1818 64.2385 51.1818C69.5245 51.1818 73.5666 49.4432 76.676 46.2727C79.889 43.1023 80.9255 38.6023 80.9255 35.0227C80.9255 33.8977 80.8218 32.875 80.7182 32.0568H64.2385Z" fill="white"/>
<path d="M95.4354 28.0664C89.1131 28.0664 83.8271 32.8732 83.8271 39.4187C83.8271 45.9641 89.0094 50.771 95.4354 50.771C101.861 50.771 107.044 46.0664 107.044 39.521C107.044 32.8732 101.861 28.0664 95.4354 28.0664ZM95.4354 46.3732C91.9115 46.3732 88.9058 43.5096 88.9058 39.521C88.9058 35.43 91.9115 32.6687 95.4354 32.6687C98.9594 32.6687 101.965 35.43 101.965 39.521C101.965 43.5096 98.9594 46.3732 95.4354 46.3732Z" fill="white"/>
<path d="M152.13 30.6232H151.923C150.782 29.2937 148.606 28.0664 145.807 28.0664C140.003 28.0664 135.028 32.9755 135.028 39.4187C135.028 45.7596 140.003 50.771 145.807 50.771C148.606 50.771 150.782 49.5437 151.923 48.2141H152.13V49.8505C152.13 54.146 149.746 56.4982 146.015 56.4982C142.905 56.4982 141.04 54.3505 140.211 52.4073L135.857 54.2482C137.101 57.2141 140.522 60.9982 146.118 60.9982C152.026 60.9982 157.105 57.521 157.105 49.1346V28.68H152.337V30.6232H152.13ZM146.326 46.3732C142.802 46.3732 140.211 43.4073 140.211 39.521C140.211 35.5323 142.905 32.6687 146.326 32.6687C149.746 32.6687 152.441 35.6346 152.441 39.6232C152.544 43.5096 149.85 46.3732 146.326 46.3732Z" fill="white"/>
<path d="M121.243 28.0664C114.921 28.0664 109.635 32.8732 109.635 39.4187C109.635 45.9641 114.817 50.771 121.243 50.771C127.669 50.771 132.851 46.0664 132.851 39.521C132.851 32.8732 127.669 28.0664 121.243 28.0664ZM121.243 46.3732C117.719 46.3732 114.713 43.5096 114.713 39.521C114.713 35.43 117.719 32.6687 121.243 32.6687C124.767 32.6687 127.773 35.43 127.773 39.521C127.773 43.5096 124.767 46.3732 121.243 46.3732Z" fill="white"/>
<path d="M160.939 16.5117H165.914V50.8754H160.939V16.5117Z" fill="white"/>
<path d="M181.255 46.3732C178.663 46.3732 176.901 45.2482 175.658 42.896L191.101 36.6573L190.583 35.3278C189.65 32.771 186.644 28.0664 180.736 28.0664C174.828 28.0664 169.854 32.6687 169.854 39.4187C169.854 45.7596 174.725 50.771 181.255 50.771C186.54 50.771 189.546 47.6005 190.894 45.7596L186.955 43.2028C185.608 45.146 183.846 46.3732 181.255 46.3732ZM180.944 32.3619C183.016 32.3619 184.778 33.3846 185.297 34.8164L174.932 39.1119C174.828 34.4073 178.352 32.3619 180.944 32.3619Z" fill="white"/>
</g>
<defs>
<clipPath id="clip0_7635_9189">
<rect width="145" height="45" fill="white" transform="translate(46.1006 16)"/>
</clipPath>
</defs>
</svg>
