<svg width="238" height="77" viewBox="0 0 238 77" fill="none" xmlns="http://www.w3.org/2000/svg">
<g clip-path="url(#clip0_7635_9180)">
<path d="M64.3008 18.5019V49.3996L68.228 49.4119V34.698H77.6967V30.8088H68.228V22.3892H80.5596V18.5L64.3008 18.5019Z" fill="white"/>
<path d="M87.6286 24.7755C89.0432 24.7755 90.1898 23.6146 90.1898 22.1827C90.1898 20.7507 89.0432 19.5898 87.6286 19.5898C86.2142 19.5898 85.0674 20.7507 85.0674 22.1827C85.0674 23.6146 86.2142 24.7755 87.6286 24.7755Z" fill="white"/>
<path d="M85.6309 28.6641V49.4066H89.558V28.6641H85.6309Z" fill="white"/>
<path fill-rule="evenodd" clip-rule="evenodd" d="M104.124 28.0586C98.9089 28.0586 95.2695 32.5236 95.2695 37.8248C95.2695 43.1261 98.9089 47.5911 104.124 47.5911C106.512 47.5911 108.479 46.6553 109.911 45.1321V47.8936C109.911 51.3302 107.245 54.2027 103.764 54.2027C102.513 54.2027 101.27 53.7118 100.28 53.021L98.3124 56.4711C99.884 57.4967 101.755 58.0919 103.764 58.0919C109.328 58.0919 113.838 53.5259 113.838 47.8936V28.6636H109.911V30.5177C108.479 28.9943 106.512 28.0586 104.124 28.0586ZM99.1967 37.8248C99.1967 34.5342 101.683 31.9478 104.551 31.9478C107.419 31.9478 109.905 34.5342 109.905 37.8248C109.905 41.1154 107.419 43.7019 104.551 43.7019C101.683 43.7019 99.1967 41.1154 99.1967 37.8248Z" fill="white"/>
<path d="M127.988 31.9478C125.666 31.9478 123.784 33.9399 123.784 36.2907V49.4061H119.856V28.6636H123.784V30.5637C124.934 29.0579 126.63 28.0586 128.842 28.0586C131.594 28.0586 133.706 29.4422 134.929 31.5598C136.289 29.5144 138.508 28.0586 141.179 28.0586C145.648 28.0586 148.43 31.7093 148.457 36.2259C148.457 36.2395 148.457 36.2532 148.457 36.2669V36.2677V36.2683V36.2691C148.457 36.2763 148.457 36.2835 148.457 36.2907V49.4061H144.529V36.2907C144.529 33.9399 142.647 31.9478 140.325 31.9478C138.003 31.9478 136.12 33.9399 136.12 36.2907V49.4061H132.193V36.2907C132.193 33.9399 130.31 31.9478 127.988 31.9478Z" fill="white"/>
<path fill-rule="evenodd" clip-rule="evenodd" d="M169.374 31.0149C167.626 29.1886 165.234 28.0586 162.458 28.0586C156.616 28.0586 152.47 33.0662 152.47 39.0348C152.47 45.0033 156.616 50.011 162.458 50.011C165.234 50.011 167.626 48.881 169.374 47.0547V49.4061H173.301V28.6636H169.374V31.0149ZM156.397 39.0348C156.397 35.0751 159.392 31.9478 162.885 31.9478C166.379 31.9478 169.374 35.0751 169.374 39.0348C169.374 42.9946 166.379 46.1218 162.885 46.1218C159.392 46.1218 156.397 42.9946 156.397 39.0348Z" fill="white"/>
</g>
<defs>
<clipPath id="clip0_7635_9180">
<rect width="109" height="40" fill="white" transform="translate(64.3008 18.5)"/>
</clipPath>
</defs>
</svg>
