<svg width="237" height="77" viewBox="0 0 237 77" fill="none" xmlns="http://www.w3.org/2000/svg">
<path d="M81.0764 36.0955C74.1723 32.0416 62.7842 31.6689 56.1934 33.6467C55.135 33.964 54.0158 33.3733 53.6951 32.3269C53.3744 31.2799 53.9712 30.1741 55.0303 29.856C62.5962 27.5851 75.1731 28.0238 83.1212 32.6887C84.0734 33.2474 84.3857 34.463 83.8212 35.4029C83.2565 36.344 82.026 36.6543 81.0764 36.0955ZM80.8503 42.0999C80.3661 42.8771 79.3384 43.1206 78.5535 42.6437C72.7975 39.1454 64.0204 38.132 57.2107 40.1757C56.3277 40.4396 55.3949 39.9474 55.1268 39.0758C54.8606 38.2027 55.3587 37.2821 56.2402 37.0166C64.0194 34.6827 73.6899 35.8131 80.3009 39.8301C81.0858 40.308 81.3329 41.3247 80.8503 42.0999ZM78.2294 47.8664C77.8448 48.4903 77.0228 48.686 76.3941 48.3057C71.3643 45.2664 65.0337 44.5797 57.5782 46.2637C56.8596 46.4266 56.1437 45.9812 55.9798 45.2711C55.8152 44.5608 56.2637 43.853 56.9838 43.6909C65.1426 41.8467 72.1413 42.6404 77.7867 46.0513C78.4162 46.4313 78.6144 47.2444 78.2294 47.8664ZM68.4068 17.3216C56.5779 17.3216 46.9883 26.8027 46.9883 38.4983C46.9883 50.195 56.5779 59.6758 68.4068 59.6758C80.2362 59.6758 89.8253 50.195 89.8253 38.4983C89.8253 26.8027 80.2362 17.3216 68.4068 17.3216Z" fill="white"/>
<path d="M105.261 36.8735C101.563 36.0015 100.904 35.3895 100.904 34.1039C100.904 32.8888 102.061 32.0715 103.782 32.0715C105.449 32.0715 107.103 32.6923 108.836 33.9704C108.889 34.0091 108.955 34.0245 109.019 34.0144C109.084 34.0048 109.141 33.9699 109.179 33.9168L110.985 31.4001C111.059 31.2967 111.039 31.1535 110.939 31.0744C108.875 29.4375 106.552 28.6417 103.836 28.6417C99.8435 28.6417 97.0544 31.0107 97.0544 34.4008C97.0544 38.0361 99.4603 39.3231 103.618 40.3166C107.157 41.1226 107.754 41.7977 107.754 43.0049C107.754 44.3423 106.546 45.1738 104.603 45.1738C102.444 45.1738 100.683 44.4549 98.7137 42.7684C98.6649 42.7269 98.5979 42.7078 98.536 42.7112C98.471 42.7166 98.4114 42.7464 98.37 42.7957L96.3454 45.1781C96.2605 45.277 96.2712 45.4246 96.3692 45.5101C98.6611 47.5329 101.479 48.6016 104.521 48.6016C108.824 48.6016 111.604 46.2768 111.604 42.6791C111.604 39.6385 109.767 37.9569 105.261 36.8735Z" fill="white"/>
<path d="M124.462 40.9456C124.462 43.5131 122.862 45.3047 120.572 45.3047C118.307 45.3047 116.599 43.4317 116.599 40.9456C116.599 38.4598 118.307 36.5865 120.572 36.5865C122.825 36.5865 124.462 38.4193 124.462 40.9456ZM121.338 33.2643C119.473 33.2643 117.943 33.9906 116.682 35.4788V33.8037C116.682 33.6714 116.574 33.5637 116.44 33.5637H113.129C112.995 33.5637 112.887 33.6714 112.887 33.8037V52.4163C112.887 52.5486 112.995 52.6562 113.129 52.6562H116.44C116.574 52.6562 116.682 52.5486 116.682 52.4163V46.5414C117.944 47.9413 119.474 48.6251 121.338 48.6251C124.804 48.6251 128.312 45.9875 128.312 40.9456C128.312 35.9025 124.804 33.2643 121.338 33.2643Z" fill="white"/>
<path d="M137.304 45.3341C134.93 45.3341 133.141 43.4484 133.141 40.9481C133.141 38.4374 134.868 36.6153 137.249 36.6153C139.638 36.6153 141.44 38.501 141.44 41.0029C141.44 43.5134 139.7 45.3341 137.304 45.3341ZM137.304 33.2668C132.841 33.2668 129.345 36.6646 129.345 41.0029C129.345 45.2941 132.817 48.6562 137.249 48.6562C141.728 48.6562 145.235 45.2699 145.235 40.9481C145.235 36.6408 141.752 33.2668 137.304 33.2668Z" fill="white"/>
<path d="M154.765 33.5657H151.121V29.8822C151.121 29.75 151.013 29.6425 150.879 29.6425H147.568C147.434 29.6425 147.326 29.75 147.326 29.8822V33.5657H145.733C145.6 33.5657 145.492 33.6734 145.492 33.8057V36.6194C145.492 36.7516 145.6 36.8593 145.733 36.8593H147.326V44.1402C147.326 47.0825 148.807 48.5742 151.728 48.5742C152.915 48.5742 153.901 48.3317 154.83 47.811C154.905 47.7693 154.952 47.6889 154.952 47.6034V44.9239C154.952 44.8412 154.908 44.7633 154.837 44.7198C154.765 44.6751 154.675 44.6728 154.601 44.709C153.963 45.0263 153.347 45.1728 152.657 45.1728C151.595 45.1728 151.121 44.6961 151.121 43.6271V36.8593H154.765C154.899 36.8593 155.006 36.7516 155.006 36.6194V33.8057C155.006 33.6734 154.899 33.5657 154.765 33.5657Z" fill="white"/>
<path d="M167.46 33.5784V33.126C167.46 31.7951 167.976 31.2016 169.134 31.2016C169.824 31.2016 170.379 31.3372 171 31.542C171.076 31.5658 171.156 31.5539 171.218 31.5086C171.282 31.4633 171.318 31.3908 171.318 31.3139V28.555C171.318 28.4495 171.25 28.3562 171.147 28.3253C170.491 28.1324 169.651 27.9341 168.395 27.9341C165.336 27.9341 163.72 29.637 163.72 32.857V33.5499H162.129C161.995 33.5499 161.886 33.6573 161.886 33.7896V36.6178C161.886 36.7499 161.995 36.8576 162.129 36.8576H163.72V48.088C163.72 48.2203 163.828 48.3278 163.961 48.3278H167.272C167.406 48.3278 167.515 48.2203 167.515 48.088V36.8576H170.607L175.342 48.0851C174.805 49.2647 174.276 49.4994 173.554 49.4994C172.971 49.4994 172.357 49.3271 171.729 48.9873C171.669 48.9551 171.6 48.9499 171.536 48.9694C171.473 48.9916 171.419 49.0379 171.392 49.0989L170.27 51.5333C170.217 51.6483 170.262 51.7835 170.374 51.8431C171.546 52.4705 172.604 52.7383 173.911 52.7383C176.356 52.7383 177.707 51.612 178.899 48.5824L184.644 33.9052C184.672 33.8313 184.664 33.7481 184.618 33.6824C184.572 33.6176 184.499 33.5784 184.419 33.5784H180.972C180.869 33.5784 180.776 33.6432 180.742 33.739L177.211 43.7122L173.343 33.7325C173.308 33.6396 173.217 33.5784 173.117 33.5784H167.46Z" fill="white"/>
<path d="M160.101 33.5644H156.789C156.656 33.5644 156.547 33.6721 156.547 33.8044V48.0884C156.547 48.2207 156.656 48.3281 156.789 48.3281H160.101C160.234 48.3281 160.343 48.2207 160.343 48.0884V33.8044C160.343 33.6721 160.234 33.5644 160.101 33.5644Z" fill="white"/>
<path d="M158.461 27.0618C157.15 27.0618 156.085 28.112 156.085 29.4088C156.085 30.7066 157.15 31.7578 158.461 31.7578C159.773 31.7578 160.836 30.7066 160.836 29.4088C160.836 28.112 159.773 27.0618 158.461 27.0618Z" fill="white"/>
<path d="M187.606 34.9846H187V35.7495H187.606C187.909 35.7495 188.09 35.603 188.09 35.3668C188.09 35.118 187.909 34.9846 187.606 34.9846ZM188 36.0758L188.659 36.9883H188.103L187.51 36.1514H187V36.9883H186.535V34.5697H187.625C188.193 34.5697 188.567 34.8572 188.567 35.3411C188.567 35.7376 188.336 35.9799 188 36.0758ZM187.483 33.765C186.29 33.765 185.386 34.7029 185.386 35.8519C185.386 37.0002 186.283 37.9258 187.471 37.9258C188.664 37.9258 189.568 36.9883 189.568 35.8388C189.568 34.6905 188.671 33.765 187.483 33.765ZM187.471 38.1562C186.16 38.1562 185.141 37.1156 185.141 35.8519C185.141 34.5881 186.174 33.5356 187.483 33.5356C188.793 33.5356 189.813 34.5762 189.813 35.8388C189.813 37.1026 188.781 38.1562 187.471 38.1562Z" fill="white"/>
</svg>
