<svg width="238" height="77" viewBox="0 0 238 77" fill="none" xmlns="http://www.w3.org/2000/svg">
<g clip-path="url(#clip0_7635_9174)">
<path d="M93.5207 34.4688C93.5207 31.8298 90.9913 29.0271 86.6142 29.0271C81.699 29.0271 76.2994 32.6852 75.4742 39.9833C74.631 47.3542 79.1516 50.6301 83.7081 50.6301C88.2646 50.6301 90.6505 48.8283 93.0902 46.426C90.9913 43.7506 88.2825 44.9882 87.7623 45.2612C87.1883 45.5524 86.4528 45.9528 84.9459 45.9528C83.1879 45.9528 81.394 45.152 81.394 41.8214C92.6596 40.6931 93.5207 37.1077 93.5207 34.4688ZM87.9417 34.9056C87.8699 35.7245 87.547 37.1259 81.8425 37.9085C83.0444 33.577 85.3406 33.2494 86.3989 33.2494C87.3856 33.2494 88.0134 34.032 87.9417 34.9056ZM68.8547 35.6153C68.8547 35.6153 66.433 43.332 66.2356 43.969C66.1639 43.3138 64.3879 29.4638 64.3879 29.4638C60.262 29.4638 58.0555 32.4486 56.8895 35.5971C56.8895 35.5971 53.9475 43.332 53.6964 43.9872C53.6784 43.3866 53.2479 35.6881 53.2479 35.6881C52.9967 31.8298 49.5166 29.482 46.7002 29.482L50.1086 50.4663C54.4319 50.4481 56.7639 47.4816 57.9838 44.333C57.9838 44.333 60.5849 37.5081 60.6925 37.1987C60.7105 37.4899 62.5582 50.4663 62.5582 50.4663C66.8994 50.4663 69.2314 47.6817 70.4872 44.6424L76.5684 29.482C72.281 29.482 70.0207 32.4486 68.8547 35.6153ZM109.45 28.9907C106.778 28.9907 104.732 30.4648 103.01 32.6306V32.6124L104.553 20C101.001 20 98.113 23.1303 97.5569 27.7895L94.8661 50.3025C96.9111 50.3025 99.0817 49.7019 100.248 48.1731C101.288 49.5381 102.849 50.6301 105.163 50.6301C111.155 50.6301 115.263 43.5686 115.263 36.9439C115.227 30.9016 112.339 28.9907 109.45 28.9907ZM108.894 39.8195C108.266 43.514 106.239 46.0256 104.284 46.0256C102.311 46.0256 101.468 45.1338 101.468 45.1338C101.844 41.8942 102.078 39.9105 102.795 38.1997C103.513 36.4889 105.217 33.759 106.993 33.759C108.733 33.759 109.522 36.1067 108.894 39.8195ZM130.224 29.482H126.044L126.062 29.2636C126.349 26.4973 126.995 25.0413 129.129 24.8047C130.582 24.6591 131.228 23.8947 131.39 23.0576C131.515 22.4024 131.91 20.1274 131.91 20.1274C123.515 20.0728 120.877 23.7491 120.196 29.3546L120.178 29.482H120.088C118.725 29.482 117.218 31.0472 116.967 33.031L116.877 33.759H119.676L117.326 53.4511L116.608 56.9818C116.698 56.9818 116.805 57 116.895 57C120.824 56.8544 123.335 53.7059 123.891 49.1377L125.721 33.759H127.031C128.322 33.759 129.829 32.4486 130.098 30.2646L130.224 29.482ZM151.966 29.1181C147.14 29.1181 142.584 32.7216 141.184 38.3817C139.785 44.0418 141.902 50.7393 149.006 50.7393C156.092 50.7393 160.182 43.7688 160.182 37.9631C160.182 32.1938 156.325 29.1181 151.966 29.1181ZM153.921 39.6375C153.67 42.2036 152.558 46.0984 149.508 46.0984C146.44 46.0984 146.871 41.5485 147.176 39.3827C147.499 37.0713 148.772 33.7772 151.517 33.7772C153.975 33.7772 154.208 36.7437 153.921 39.6375ZM184.022 35.6153C184.022 35.6153 181.601 43.332 181.403 43.969C181.332 43.3138 179.556 29.4638 179.556 29.4638C175.43 29.4638 173.223 32.4486 172.057 35.5971C172.057 35.5971 169.115 43.332 168.864 43.9872C168.846 43.3866 168.416 35.6881 168.416 35.6881C168.164 31.8298 164.684 29.482 161.868 29.482L165.258 50.4663C169.582 50.4481 171.914 47.4816 173.133 44.333C173.133 44.333 175.735 37.5081 175.824 37.1987C175.86 37.4899 177.69 50.4663 177.69 50.4663C182.031 50.4663 184.363 47.6817 185.619 44.6424L191.7 29.482C187.431 29.482 185.17 32.4486 184.022 35.6153ZM134.17 20.1274L130.654 48.9011L129.937 52.4501C130.026 52.4501 130.134 52.4683 130.224 52.4683C134.009 52.4137 136.7 49.0467 137.202 44.8062L139.229 28.2991C139.839 23.2577 136.879 20.1274 134.17 20.1274Z" fill="white"/>
</g>
<defs>
<clipPath id="clip0_7635_9174">
<rect width="145" height="37" fill="white" transform="translate(46.7002 20)"/>
</clipPath>
</defs>
</svg>
