<svg width="33" height="32" viewBox="0 0 33 32" fill="none" xmlns="http://www.w3.org/2000/svg">
<path d="M16.9131 3C14.3419 3 11.8285 3.76244 9.69068 5.1909C7.55284 6.61935 5.8866 8.64968 4.90266 11.0251C3.91872 13.4006 3.66128 16.0144 4.16288 18.5362C4.66449 21.0579 5.90262 23.3743 7.7207 25.1924C9.53879 27.0105 11.8552 28.2486 14.3769 28.7502C16.8987 29.2518 19.5125 28.9944 21.888 28.0104C24.2634 27.0265 26.2937 25.3603 27.7222 23.2224C29.1507 21.0846 29.9131 18.5712 29.9131 16C29.9095 12.5533 28.5386 9.24882 26.1015 6.81163C23.6643 4.37445 20.3598 3.00364 16.9131 3ZM22.6206 13.7075L15.6206 20.7075C15.5277 20.8005 15.4174 20.8742 15.296 20.9246C15.1746 20.9749 15.0445 21.0008 14.9131 21.0008C14.7817 21.0008 14.6515 20.9749 14.5302 20.9246C14.4088 20.8742 14.2985 20.8005 14.2056 20.7075L11.2056 17.7075C11.018 17.5199 10.9125 17.2654 10.9125 17C10.9125 16.7346 11.018 16.4801 11.2056 16.2925C11.3932 16.1049 11.6477 15.9994 11.9131 15.9994C12.1785 15.9994 12.433 16.1049 12.6206 16.2925L14.9131 18.5863L21.2056 12.2925C21.2985 12.1996 21.4088 12.1259 21.5302 12.0756C21.6516 12.0253 21.7817 11.9994 21.9131 11.9994C22.0445 11.9994 22.1746 12.0253 22.296 12.0756C22.4174 12.1259 22.5277 12.1996 22.6206 12.2925C22.7135 12.3854 22.7872 12.4957 22.8375 12.6171C22.8878 12.7385 22.9136 12.8686 22.9136 13C22.9136 13.1314 22.8878 13.2615 22.8375 13.3829C22.7872 13.5043 22.7135 13.6146 22.6206 13.7075Z" fill="#E2A5FF"/>
</svg>
